<svg xmlns="http://www.w3.org/2000/svg" viewBox="0 0 512 512" width="512" height="512" role="img" aria-label="Firstlight — F as first light over the horizon">
  <title>Firstlight — F as first light over the horizon</title>
  <defs>
    <linearGradient id="f2-sky" x1="0" y1="0" x2="0" y2="1">
      <stop offset="0" stop-color="#0C2422"/>
      <stop offset=".42" stop-color="#153733"/>
      <stop offset=".58" stop-color="#215B54"/>
    </linearGradient>
    <radialGradient id="f2-beam" cx="386" cy="138" r="200" gradientUnits="userSpaceOnUse">
      <stop offset="0" stop-color="#F7C77E" stop-opacity=".55"/>
      <stop offset=".45" stop-color="#E7743A" stop-opacity=".22"/>
      <stop offset="1" stop-color="#E04E14" stop-opacity="0"/>
    </radialGradient>
    <radialGradient id="f2-dawn" cx="344" cy="292" r="216" gradientUnits="userSpaceOnUse">
      <stop offset="0" stop-color="#F7C77E" stop-opacity=".5"/>
      <stop offset="1" stop-color="#F7C77E" stop-opacity="0"/>
    </radialGradient>
    <clipPath id="f2-badge"><rect x="16" y="16" width="480" height="480" rx="116"/></clipPath>
    <filter id="f2-grain" x="0" y="0" width="100%" height="100%">
      <feTurbulence type="fractalNoise" baseFrequency=".9" numOctaves="3" seed="3"/>
      <feColorMatrix type="saturate" values="0"/>
    </filter>
  </defs>
  <g clip-path="url(#f2-badge)">
    <rect width="512" height="512" fill="url(#f2-sky)"/>
    <rect width="512" height="512" fill="url(#f2-dawn)"/>
    <rect width="512" height="512" fill="url(#f2-beam)"/>
    <!-- the sea, under the line the middle arm lies on -->
    <path d="M0 296 H512 V512 H0 Z" fill="#0C2422"/>
    <!-- the light, broken across the water -->
    <g fill="#E04E14">
      <rect x="360" y="330" width="56" height="16" rx="8"/>
      <rect x="342" y="372" width="92" height="17" rx="8.5" opacity=".8"/>
      <rect x="320" y="418" width="132" height="18" rx="9" opacity=".58"/>
    </g>
    <!-- the ray: the top arm of the F -->
    <rect x="148" y="104" width="236" height="68" fill="#E04E14"/>
    <!-- the horizon: the middle arm, lying exactly on the water -->
    <rect x="148" y="232" width="188" height="64" fill="#F7C77E"/>
    <!-- the column of light: the stem, standing in the water -->
    <rect x="148" y="104" width="68" height="304" fill="#F7EFE2"/>
    <rect width="512" height="512" filter="url(#f2-grain)" opacity=".07"/>
  </g>
  <rect x="42" y="42" width="428" height="428" rx="92" fill="none" stroke="#C9A26A" stroke-width="6" opacity=".5"/>
  <rect x="16" y="16" width="480" height="480" rx="116" fill="none" stroke="#0C2422" stroke-width="16"/>
</svg>
